<mxfile host="app.diagrams.net" modified="2022-04-13T18:13:52.326Z" agent="5.0 (Windows NT 10.0; Win64; x64) AppleWebKit/537.36 (KHTML, like Gecko) Chrome/100.0.4896.75 Safari/537.36" etag="-5U3K0-QgLV7xyn-aDPI" version="17.4.4" type="github">
  <diagram name="Page-1" id="e7e014a7-5840-1c2e-5031-d8a46d1fe8dd">
    <mxGraphModel dx="2666" dy="802" grid="1" gridSize="1.5748" guides="1" tooltips="1" connect="1" arrows="1" fold="1" page="1" pageScale="1" pageWidth="1169" pageHeight="826" background="none" math="0" shadow="0">
      <root>
        <mxCell id="0" />
        <mxCell id="1" parent="0" />
        <mxCell id="YpZlYrM8N79kbtDbUzei-41" value="Поиск информации по сотруднику" style="rounded=0;whiteSpace=wrap;html=1;" vertex="1" parent="1">
          <mxGeometry x="585" y="383" width="120" height="60" as="geometry" />
        </mxCell>
        <mxCell id="YpZlYrM8N79kbtDbUzei-46" value="" style="endArrow=classic;html=1;rounded=0;" edge="1" parent="1">
          <mxGeometry width="50" height="50" relative="1" as="geometry">
            <mxPoint x="472" y="413" as="sourcePoint" />
            <mxPoint x="585" y="413" as="targetPoint" />
          </mxGeometry>
        </mxCell>
        <mxCell id="YpZlYrM8N79kbtDbUzei-52" value="Данные от пользователя" style="edgeLabel;html=1;align=center;verticalAlign=middle;resizable=0;points=[];" vertex="1" connectable="0" parent="YpZlYrM8N79kbtDbUzei-46">
          <mxGeometry x="-0.3096" y="-2" relative="1" as="geometry">
            <mxPoint x="-39" y="-2" as="offset" />
          </mxGeometry>
        </mxCell>
        <mxCell id="YpZlYrM8N79kbtDbUzei-47" value="" style="endArrow=classic;html=1;rounded=0;exitX=1;exitY=0.5;exitDx=0;exitDy=0;" edge="1" parent="1" source="YpZlYrM8N79kbtDbUzei-41">
          <mxGeometry width="50" height="50" relative="1" as="geometry">
            <mxPoint x="748" y="444" as="sourcePoint" />
            <mxPoint x="866" y="413" as="targetPoint" />
          </mxGeometry>
        </mxCell>
        <mxCell id="YpZlYrM8N79kbtDbUzei-55" value="Выходное сообщение" style="edgeLabel;html=1;align=center;verticalAlign=middle;resizable=0;points=[];" vertex="1" connectable="0" parent="YpZlYrM8N79kbtDbUzei-47">
          <mxGeometry x="0.5455" y="1" relative="1" as="geometry">
            <mxPoint x="-42" y="1" as="offset" />
          </mxGeometry>
        </mxCell>
        <mxCell id="YpZlYrM8N79kbtDbUzei-49" value="" style="endArrow=classic;html=1;rounded=0;entryX=0.478;entryY=-0.011;entryDx=0;entryDy=0;entryPerimeter=0;" edge="1" parent="1" target="YpZlYrM8N79kbtDbUzei-41">
          <mxGeometry width="50" height="50" relative="1" as="geometry">
            <mxPoint x="642" y="315" as="sourcePoint" />
            <mxPoint x="665.4100000000002" y="383.0000000000001" as="targetPoint" />
          </mxGeometry>
        </mxCell>
        <mxCell id="YpZlYrM8N79kbtDbUzei-53" value="Условия&amp;nbsp;&lt;br&gt;ввода" style="edgeLabel;html=1;align=center;verticalAlign=middle;resizable=0;points=[];" vertex="1" connectable="0" parent="YpZlYrM8N79kbtDbUzei-49">
          <mxGeometry x="0.3095" y="-2" relative="1" as="geometry">
            <mxPoint as="offset" />
          </mxGeometry>
        </mxCell>
        <mxCell id="YpZlYrM8N79kbtDbUzei-50" value="Веб сервис с данными" style="endArrow=classic;html=1;rounded=0;entryX=0.25;entryY=1;entryDx=0;entryDy=0;" edge="1" parent="1" target="YpZlYrM8N79kbtDbUzei-41">
          <mxGeometry x="0.1467" y="24" width="50" height="50" relative="1" as="geometry">
            <mxPoint x="615" y="512" as="sourcePoint" />
            <mxPoint x="635" y="443" as="targetPoint" />
            <mxPoint as="offset" />
          </mxGeometry>
        </mxCell>
        <mxCell id="YpZlYrM8N79kbtDbUzei-51" value="Телеграм сервис" style="endArrow=classic;html=1;rounded=0;entryX=0.25;entryY=1;entryDx=0;entryDy=0;" edge="1" parent="1">
          <mxGeometry x="-0.9945" width="50" height="50" relative="1" as="geometry">
            <mxPoint x="669.29" y="512" as="sourcePoint" />
            <mxPoint x="669.29" y="443" as="targetPoint" />
            <mxPoint as="offset" />
          </mxGeometry>
        </mxCell>
        <mxCell id="YpZlYrM8N79kbtDbUzei-56" value="Поиск информации по сотруднику" style="rounded=0;whiteSpace=wrap;html=1;" vertex="1" parent="1">
          <mxGeometry x="303" y="1012.88" width="120" height="60" as="geometry" />
        </mxCell>
        <mxCell id="YpZlYrM8N79kbtDbUzei-57" value="" style="endArrow=classic;html=1;rounded=0;" edge="1" parent="1">
          <mxGeometry width="50" height="50" relative="1" as="geometry">
            <mxPoint x="190" y="1042.8799999999999" as="sourcePoint" />
            <mxPoint x="303" y="1042.8799999999999" as="targetPoint" />
          </mxGeometry>
        </mxCell>
        <mxCell id="YpZlYrM8N79kbtDbUzei-58" value="Данные от пользователя" style="edgeLabel;html=1;align=center;verticalAlign=middle;resizable=0;points=[];" vertex="1" connectable="0" parent="YpZlYrM8N79kbtDbUzei-57">
          <mxGeometry x="-0.3096" y="-2" relative="1" as="geometry">
            <mxPoint x="-39" y="-2" as="offset" />
          </mxGeometry>
        </mxCell>
        <mxCell id="YpZlYrM8N79kbtDbUzei-59" value="" style="endArrow=classic;html=1;rounded=0;exitX=1;exitY=0.5;exitDx=0;exitDy=0;" edge="1" parent="1" source="YpZlYrM8N79kbtDbUzei-56">
          <mxGeometry width="50" height="50" relative="1" as="geometry">
            <mxPoint x="466" y="1073.8799999999999" as="sourcePoint" />
            <mxPoint x="584" y="1042.8799999999999" as="targetPoint" />
          </mxGeometry>
        </mxCell>
        <mxCell id="YpZlYrM8N79kbtDbUzei-60" value="Выходное сообщение" style="edgeLabel;html=1;align=center;verticalAlign=middle;resizable=0;points=[];" vertex="1" connectable="0" parent="YpZlYrM8N79kbtDbUzei-59">
          <mxGeometry x="0.5455" y="1" relative="1" as="geometry">
            <mxPoint x="-42" y="1" as="offset" />
          </mxGeometry>
        </mxCell>
        <mxCell id="YpZlYrM8N79kbtDbUzei-61" value="" style="endArrow=classic;html=1;rounded=0;entryX=0.478;entryY=-0.011;entryDx=0;entryDy=0;entryPerimeter=0;" edge="1" parent="1" target="YpZlYrM8N79kbtDbUzei-56">
          <mxGeometry width="50" height="50" relative="1" as="geometry">
            <mxPoint x="360" y="944.88" as="sourcePoint" />
            <mxPoint x="383.4100000000002" y="1012.8800000000002" as="targetPoint" />
          </mxGeometry>
        </mxCell>
        <mxCell id="YpZlYrM8N79kbtDbUzei-62" value="Условия&amp;nbsp;&lt;br&gt;ввода" style="edgeLabel;html=1;align=center;verticalAlign=middle;resizable=0;points=[];" vertex="1" connectable="0" parent="YpZlYrM8N79kbtDbUzei-61">
          <mxGeometry x="0.3095" y="-2" relative="1" as="geometry">
            <mxPoint as="offset" />
          </mxGeometry>
        </mxCell>
        <mxCell id="YpZlYrM8N79kbtDbUzei-63" value="Веб сервис с данными" style="endArrow=classic;html=1;rounded=0;entryX=0.25;entryY=1;entryDx=0;entryDy=0;" edge="1" parent="1" target="YpZlYrM8N79kbtDbUzei-56">
          <mxGeometry x="0.1467" y="24" width="50" height="50" relative="1" as="geometry">
            <mxPoint x="333.0000000000002" y="1141.8799999999999" as="sourcePoint" />
            <mxPoint x="353" y="1072.8799999999999" as="targetPoint" />
            <mxPoint as="offset" />
          </mxGeometry>
        </mxCell>
        <mxCell id="YpZlYrM8N79kbtDbUzei-64" value="Телеграм сервис" style="endArrow=classic;html=1;rounded=0;entryX=0.25;entryY=1;entryDx=0;entryDy=0;" edge="1" parent="1">
          <mxGeometry x="-0.9945" width="50" height="50" relative="1" as="geometry">
            <mxPoint x="387.28999999999974" y="1141.8799999999999" as="sourcePoint" />
            <mxPoint x="387.28999999999974" y="1072.8799999999999" as="targetPoint" />
            <mxPoint as="offset" />
          </mxGeometry>
        </mxCell>
        <mxCell id="YpZlYrM8N79kbtDbUzei-70" value="Отправка запроса" style="rounded=0;whiteSpace=wrap;html=1;" vertex="1" parent="1">
          <mxGeometry x="354.33000000000004" y="1505.9499999999998" width="120" height="60" as="geometry" />
        </mxCell>
        <mxCell id="YpZlYrM8N79kbtDbUzei-75" value="Ввод данных для поиска" style="rounded=0;whiteSpace=wrap;html=1;" vertex="1" parent="1">
          <mxGeometry x="152.42000000000002" y="1445.95" width="120" height="60" as="geometry" />
        </mxCell>
        <mxCell id="YpZlYrM8N79kbtDbUzei-76" value="" style="endArrow=classic;html=1;rounded=0;" edge="1" parent="1">
          <mxGeometry width="50" height="50" relative="1" as="geometry">
            <mxPoint x="39.42000000000001" y="1475.9499999999998" as="sourcePoint" />
            <mxPoint x="152.42000000000002" y="1475.9499999999998" as="targetPoint" />
          </mxGeometry>
        </mxCell>
        <mxCell id="YpZlYrM8N79kbtDbUzei-77" value="Данные от пользователя" style="edgeLabel;html=1;align=center;verticalAlign=middle;resizable=0;points=[];" vertex="1" connectable="0" parent="YpZlYrM8N79kbtDbUzei-76">
          <mxGeometry x="-0.3096" y="-2" relative="1" as="geometry">
            <mxPoint x="-39" y="-2" as="offset" />
          </mxGeometry>
        </mxCell>
        <mxCell id="YpZlYrM8N79kbtDbUzei-78" value="" style="endArrow=classic;html=1;rounded=0;" edge="1" parent="1">
          <mxGeometry width="50" height="50" relative="1" as="geometry">
            <mxPoint x="1025.51" y="1715.55" as="sourcePoint" />
            <mxPoint x="1260" y="1716" as="targetPoint" />
          </mxGeometry>
        </mxCell>
        <mxCell id="YpZlYrM8N79kbtDbUzei-79" value="Выходное сообщение" style="edgeLabel;html=1;align=center;verticalAlign=middle;resizable=0;points=[];" vertex="1" connectable="0" parent="YpZlYrM8N79kbtDbUzei-78">
          <mxGeometry x="0.5455" y="1" relative="1" as="geometry">
            <mxPoint x="-65" y="1" as="offset" />
          </mxGeometry>
        </mxCell>
        <mxCell id="YpZlYrM8N79kbtDbUzei-80" value="" style="endArrow=classic;html=1;rounded=0;entryX=0.478;entryY=-0.011;entryDx=0;entryDy=0;entryPerimeter=0;" edge="1" parent="1" target="YpZlYrM8N79kbtDbUzei-75">
          <mxGeometry width="50" height="50" relative="1" as="geometry">
            <mxPoint x="209.42000000000002" y="1377.95" as="sourcePoint" />
            <mxPoint x="232.8300000000002" y="1445.9500000000003" as="targetPoint" />
          </mxGeometry>
        </mxCell>
        <mxCell id="YpZlYrM8N79kbtDbUzei-81" value="Условия&amp;nbsp;&lt;br&gt;ввода" style="edgeLabel;html=1;align=center;verticalAlign=middle;resizable=0;points=[];" vertex="1" connectable="0" parent="YpZlYrM8N79kbtDbUzei-80">
          <mxGeometry x="0.3095" y="-2" relative="1" as="geometry">
            <mxPoint x="-11" y="-45" as="offset" />
          </mxGeometry>
        </mxCell>
        <mxCell id="YpZlYrM8N79kbtDbUzei-82" value="Веб сервис с данными" style="endArrow=classic;html=1;rounded=0;entryX=0.5;entryY=1;entryDx=0;entryDy=0;" edge="1" parent="1" target="YpZlYrM8N79kbtDbUzei-70">
          <mxGeometry x="0.4432" y="-7" width="50" height="50" relative="1" as="geometry">
            <mxPoint x="414" y="1906" as="sourcePoint" />
            <mxPoint x="211.99000000000004" y="1838.58" as="targetPoint" />
            <mxPoint as="offset" />
          </mxGeometry>
        </mxCell>
        <mxCell id="YpZlYrM8N79kbtDbUzei-83" value="Телеграм сервис" style="endArrow=classic;html=1;rounded=0;entryX=0.25;entryY=1;entryDx=0;entryDy=0;" edge="1" parent="1" target="YpZlYrM8N79kbtDbUzei-75">
          <mxGeometry x="0.342" y="7" width="50" height="50" relative="1" as="geometry">
            <mxPoint x="181.09999999999977" y="1911.5199999999998" as="sourcePoint" />
            <mxPoint x="181.09999999999977" y="1842.5199999999998" as="targetPoint" />
            <mxPoint as="offset" />
          </mxGeometry>
        </mxCell>
        <mxCell id="YpZlYrM8N79kbtDbUzei-84" value="Получение ответа" style="rounded=0;whiteSpace=wrap;html=1;" vertex="1" parent="1">
          <mxGeometry x="524.0000000000001" y="1565.9499999999998" width="120" height="60" as="geometry" />
        </mxCell>
        <mxCell id="YpZlYrM8N79kbtDbUzei-85" value="Обработка ответа" style="rounded=0;whiteSpace=wrap;html=1;" vertex="1" parent="1">
          <mxGeometry x="705.0000000000001" y="1625.9499999999998" width="120" height="60" as="geometry" />
        </mxCell>
        <mxCell id="YpZlYrM8N79kbtDbUzei-86" value="Вывод данных" style="rounded=0;whiteSpace=wrap;html=1;" vertex="1" parent="1">
          <mxGeometry x="905.5100000000001" y="1685.9499999999998" width="120" height="60" as="geometry" />
        </mxCell>
        <mxCell id="YpZlYrM8N79kbtDbUzei-90" value="" style="endArrow=none;html=1;rounded=0;" edge="1" parent="1">
          <mxGeometry width="50" height="50" relative="1" as="geometry">
            <mxPoint x="208.66" y="1417" as="sourcePoint" />
            <mxPoint x="965" y="1417" as="targetPoint" />
          </mxGeometry>
        </mxCell>
        <mxCell id="YpZlYrM8N79kbtDbUzei-92" value="" style="endArrow=classic;html=1;rounded=0;strokeWidth=1;entryX=0.5;entryY=0;entryDx=0;entryDy=0;" edge="1" parent="1" target="YpZlYrM8N79kbtDbUzei-84">
          <mxGeometry width="50" height="50" relative="1" as="geometry">
            <mxPoint x="583" y="1417" as="sourcePoint" />
            <mxPoint x="684" y="1610" as="targetPoint" />
          </mxGeometry>
        </mxCell>
        <mxCell id="YpZlYrM8N79kbtDbUzei-93" value="" style="endArrow=classic;html=1;rounded=0;strokeWidth=1;" edge="1" parent="1" target="YpZlYrM8N79kbtDbUzei-70">
          <mxGeometry width="50" height="50" relative="1" as="geometry">
            <mxPoint x="413.827" y="1416.9969999999998" as="sourcePoint" />
            <mxPoint x="415" y="1504" as="targetPoint" />
          </mxGeometry>
        </mxCell>
        <mxCell id="YpZlYrM8N79kbtDbUzei-94" value="" style="endArrow=classic;html=1;rounded=0;strokeWidth=1;entryX=0.5;entryY=0;entryDx=0;entryDy=0;" edge="1" parent="1" target="YpZlYrM8N79kbtDbUzei-85">
          <mxGeometry width="50" height="50" relative="1" as="geometry">
            <mxPoint x="764.6840000000002" y="1416.9939999999997" as="sourcePoint" />
            <mxPoint x="765.0601431741948" y="1505.9469999999997" as="targetPoint" />
          </mxGeometry>
        </mxCell>
        <mxCell id="YpZlYrM8N79kbtDbUzei-95" value="" style="endArrow=classic;html=1;rounded=0;strokeWidth=1;entryX=0.5;entryY=0;entryDx=0;entryDy=0;" edge="1" parent="1" target="YpZlYrM8N79kbtDbUzei-86">
          <mxGeometry width="50" height="50" relative="1" as="geometry">
            <mxPoint x="965" y="1417" as="sourcePoint" />
            <mxPoint x="976.687" y="1625.9469999999997" as="targetPoint" />
          </mxGeometry>
        </mxCell>
        <mxCell id="YpZlYrM8N79kbtDbUzei-96" value="" style="endArrow=classic;html=1;rounded=0;strokeWidth=1;entryX=0;entryY=0.75;entryDx=0;entryDy=0;" edge="1" parent="1" target="YpZlYrM8N79kbtDbUzei-86">
          <mxGeometry width="50" height="50" relative="1" as="geometry">
            <mxPoint x="181" y="1732" as="sourcePoint" />
            <mxPoint x="444" y="1713" as="targetPoint" />
          </mxGeometry>
        </mxCell>
        <mxCell id="YpZlYrM8N79kbtDbUzei-97" value="" style="endArrow=classic;html=1;rounded=0;strokeWidth=1;entryX=0.5;entryY=1;entryDx=0;entryDy=0;" edge="1" parent="1" target="YpZlYrM8N79kbtDbUzei-85">
          <mxGeometry width="50" height="50" relative="1" as="geometry">
            <mxPoint x="765" y="1731" as="sourcePoint" />
            <mxPoint x="813.78" y="1681.1" as="targetPoint" />
          </mxGeometry>
        </mxCell>
        <mxCell id="YpZlYrM8N79kbtDbUzei-104" value="" style="endArrow=classic;html=1;rounded=0;strokeWidth=1;entryX=0.5;entryY=1;entryDx=0;entryDy=0;" edge="1" parent="1" target="YpZlYrM8N79kbtDbUzei-84">
          <mxGeometry width="50" height="50" relative="1" as="geometry">
            <mxPoint x="584" y="1700" as="sourcePoint" />
            <mxPoint x="495" y="1722" as="targetPoint" />
          </mxGeometry>
        </mxCell>
        <mxCell id="YpZlYrM8N79kbtDbUzei-105" value="" style="endArrow=none;html=1;rounded=0;strokeWidth=1;" edge="1" parent="1">
          <mxGeometry width="50" height="50" relative="1" as="geometry">
            <mxPoint x="414" y="1700" as="sourcePoint" />
            <mxPoint x="585" y="1700" as="targetPoint" />
          </mxGeometry>
        </mxCell>
      </root>
    </mxGraphModel>
  </diagram>
</mxfile>
